<svg width="40" height="37" viewBox="0 0 40 37" fill="none" xmlns="http://www.w3.org/2000/svg">
<rect width="40" height="36.827" rx="8" fill="#15C770"/>
<path d="M24.463 8V15.537H32V8H24.463ZM25.719 9.256H30.744V14.281H25.719V9.256ZM26.975 10.512V13.025H29.488V10.512H26.975ZM11.77 11.768V14.943H15.146C17.288 14.943 18.504 15.983 18.504 17.882C18.504 19.829 17.288 20.893 15.146 20.893H11.769L11.77 14.943H8V28.827H11.769V24.067H15.339C19.672 24.067 22.154 21.715 22.154 17.747C22.154 13.976 19.672 11.769 15.34 11.769L11.77 11.768Z" fill="white"/>
</svg>
