<svg width="180" height="80" viewBox="0 0 120 41" fill="none" xmlns="http://www.w3.org/2000/svg">
<mask id="mask0_252_1595" style="mask-type:luminance" maskUnits="userSpaceOnUse" x="0" y="1" width="120" height="39">
<path d="M0.344727 1.0036H119.653V39.6243H0.344727V1.0036Z" fill="white"/>
</mask>
<g mask="url(#mask0_252_1595)">
<path d="M25.0468 32.1898H30.6005V15.8726H25.0468V32.1898ZM32.5157 4.76912H28.7812V8.53464H32.5157V4.76912ZM11.544 6.6036H6.18192V11.3346H11.1612C14.3212 11.3346 16.1405 12.8795 16.1405 15.776C16.1405 18.6726 14.3212 20.3139 11.1612 20.3139H6.18192V11.4312H0.627441V32.1898H6.18192V25.045H11.4481C17.8647 25.045 21.5992 21.5691 21.5992 15.5829C21.5992 9.98291 17.9599 6.6036 11.544 6.6036ZM36.2502 1.0036H25.0468V12.3002H36.2502V1.0036ZM34.4309 10.3691H26.9619V2.83808H34.4309V10.3691ZM66.9895 6.6036H61.9136V11.3346H66.7019C69.8619 11.3346 71.6819 12.8795 71.6819 15.776C71.6819 18.6726 69.8619 20.3139 66.7026 20.3139H61.9143V11.4312H56.3599V32.1898H61.9143V25.045H66.9895C73.4054 25.045 77.1399 21.5691 77.1399 15.5829C77.1399 9.98291 73.4054 6.6036 66.9895 6.6036ZM113.625 12.5898L108.836 24.7553L104.049 12.5898H98.3033L105.964 32.1898L102.995 39.6243H108.836L119.37 12.5898H113.625ZM88.7268 12.4933C85.3757 12.4933 82.7902 13.2657 79.9171 14.7139L81.6405 18.576C83.6516 17.4174 85.6626 16.8381 87.4819 16.8381C90.1633 16.8381 91.504 17.9967 91.504 20.1208V20.507H86.1412C81.3536 20.507 78.7681 22.7277 78.7681 26.3967C78.7681 29.9691 81.2578 32.4795 85.4709 32.4795C88.1523 32.4795 90.0674 31.5139 91.5999 29.8726V31.9967H97.0585V19.2519C96.8668 15.1002 93.8978 12.4933 88.7268 12.4933ZM91.9826 25.6243C91.4081 27.2657 89.7805 28.6174 87.4819 28.6174C85.5668 28.6174 84.4178 27.6519 84.4178 26.107C84.4178 24.5622 85.4709 23.8864 87.5778 23.8864H91.9826V25.6243ZM44.773 27.9415C42.0916 27.9415 40.1764 25.8174 40.1764 22.6312C40.1764 19.5415 42.0916 17.4174 44.773 17.4174C46.6881 17.4174 48.1247 18.1898 49.1778 19.5415L52.913 16.8381C51.1888 14.2312 48.2205 12.6864 44.4854 12.6864C38.644 12.5898 34.6226 16.645 34.6226 22.6312C34.6226 28.6174 38.6447 32.576 44.4861 32.576C48.5074 32.576 51.4764 30.9346 53.104 28.2312L49.2736 25.6243C48.3164 27.1691 46.784 27.9415 44.773 27.9415Z" fill="#15C770"/>
</g>
<path d="M53.1001 22V28.2612H49.0001V27.5C48.9538 27.6009 48.5 27 49 26C49.5 25 49.5 25 49 25H46V23.5V22H53.1001Z" fill="#15C770"/>
</svg>
